<mxfile><diagram id="VqWQWksIvEw2kfa07TuC" name="Page-1"><mxGraphModel dx="797" dy="1541" grid="1" gridSize="10" guides="1" tooltips="1" connect="1" arrows="1" fold="1" page="1" pageScale="1" pageWidth="850" pageHeight="1100" math="0" shadow="0"><root><mxCell id="0"/><mxCell id="1" parent="0"/><mxCell id="2" value="User" style="swimlane;childLayout=stackLayout;horizontal=1;startSize=30;horizontalStack=0;rounded=1;fontSize=14;fontStyle=0;strokeWidth=2;resizeParent=0;resizeLast=1;shadow=0;dashed=0;align=center;" parent="1" vertex="1"><mxGeometry x="90" y="70" width="160" height="300" as="geometry"/></mxCell><mxCell id="15" value="Guid Id&lt;br&gt;string Role&lt;br&gt;string FirtsName&lt;br&gt;string LastName&lt;br&gt;string UserName&lt;br&gt;decimal Salary&lt;br&gt;&lt;br&gt;&lt;br&gt;&lt;br&gt;&lt;br&gt;&lt;br&gt;&lt;br&gt;&lt;br&gt;&lt;br&gt;&lt;br&gt;&lt;br&gt;" style="text;html=1;align=left;verticalAlign=middle;resizable=0;points=[];autosize=1;strokeColor=none;fillColor=none;" parent="2" vertex="1"><mxGeometry y="30" width="160" height="270" as="geometry"/></mxCell><mxCell id="4" value="Order" style="swimlane;childLayout=stackLayout;horizontal=1;startSize=30;horizontalStack=0;rounded=1;fontSize=14;fontStyle=0;strokeWidth=2;resizeParent=0;resizeLast=1;shadow=0;dashed=0;align=center;" parent="1" vertex="1"><mxGeometry x="330" y="140" width="220" height="298" as="geometry"/></mxCell><mxCell id="7" value="&lt;div style=&quot;&quot;&gt;&lt;span style=&quot;background-color: initial;&quot;&gt;Int WaiterOrderId&lt;/span&gt;&lt;br&gt;&lt;/div&gt;&lt;div style=&quot;&quot;&gt;List&amp;lt;Food&amp;gt; Food&lt;/div&gt;&lt;div style=&quot;&quot;&gt;List&amp;lt;Order_Cooker&amp;gt; CookersOrders&lt;/div&gt;&lt;div style=&quot;&quot;&gt;string Status&lt;/div&gt;&lt;div style=&quot;&quot;&gt;string Type&lt;/div&gt;&lt;div style=&quot;&quot;&gt;&lt;span style=&quot;background-color: initial;&quot;&gt;User Waiter&lt;/span&gt;&lt;/div&gt;&lt;div style=&quot;&quot;&gt;&lt;span style=&quot;background-color: initial;&quot;&gt;Guid WaiterId&lt;/span&gt;&lt;/div&gt;&lt;div style=&quot;&quot;&gt;&lt;span style=&quot;background-color: initial;&quot;&gt;decimal TotalPrice&lt;/span&gt;&lt;/div&gt;&lt;div style=&quot;&quot;&gt;&lt;span style=&quot;background-color: initial;&quot;&gt;int Tip&lt;/span&gt;&lt;/div&gt;&lt;div style=&quot;&quot;&gt;&lt;span style=&quot;background-color: initial;&quot;&gt;DateTime AcceptedTime&lt;/span&gt;&lt;/div&gt;&lt;div style=&quot;&quot;&gt;&lt;span style=&quot;background-color: initial;&quot;&gt;DateTime ClosedTime&lt;/span&gt;&lt;/div&gt;&lt;div style=&quot;&quot;&gt;&lt;span style=&quot;background-color: initial;&quot;&gt;Time CoockingTime&lt;/span&gt;&lt;/div&gt;&lt;div style=&quot;&quot;&gt;&lt;br&gt;&lt;/div&gt;&lt;div style=&quot;&quot;&gt;&lt;br&gt;&lt;/div&gt;&lt;div style=&quot;&quot;&gt;&lt;span style=&quot;background-color: initial;&quot;&gt;&lt;br&gt;&lt;/span&gt;&lt;/div&gt;&lt;div style=&quot;&quot;&gt;&lt;span style=&quot;background-color: initial;&quot;&gt;&lt;br&gt;&lt;/span&gt;&lt;/div&gt;&lt;div style=&quot;&quot;&gt;&lt;span style=&quot;background-color: initial;&quot;&gt;&lt;br&gt;&lt;/span&gt;&lt;/div&gt;&lt;div style=&quot;&quot;&gt;&lt;span style=&quot;background-color: initial;&quot;&gt;&lt;br&gt;&lt;/span&gt;&lt;/div&gt;" style="text;html=1;align=left;verticalAlign=middle;resizable=0;points=[];autosize=1;strokeColor=none;fillColor=none;imageVerticalAlign=top;" parent="4" vertex="1"><mxGeometry y="30" width="220" height="268" as="geometry"/></mxCell><mxCell id="5" value="Food" style="swimlane;childLayout=stackLayout;horizontal=1;startSize=30;horizontalStack=0;rounded=1;fontSize=14;fontStyle=0;strokeWidth=2;resizeParent=0;resizeLast=1;shadow=0;dashed=0;align=center;" parent="1" vertex="1"><mxGeometry x="650" y="130" width="160" height="300" as="geometry"/></mxCell><mxCell id="12" value="int FoodId&lt;br&gt;int CategoryId&lt;br&gt;string Name&lt;br&gt;bool IsReady&lt;br&gt;string Description&lt;br&gt;decimal Price&lt;br&gt;bool Exists&lt;br&gt;double Portion&lt;br&gt;Time CoockingTime&lt;br&gt;&lt;br&gt;&lt;br&gt;&lt;br&gt;&lt;br&gt;&lt;br&gt;&lt;br&gt;&lt;br&gt;" style="text;html=1;align=left;verticalAlign=middle;resizable=0;points=[];autosize=1;strokeColor=none;fillColor=none;" parent="5" vertex="1"><mxGeometry y="30" width="160" height="270" as="geometry"/></mxCell><mxCell id="6" value="Category" style="swimlane;childLayout=stackLayout;horizontal=1;startSize=30;horizontalStack=0;rounded=1;fontSize=14;fontStyle=0;strokeWidth=2;resizeParent=0;resizeLast=1;shadow=0;dashed=0;align=center;" parent="1" vertex="1"><mxGeometry x="90" y="446" width="160" height="300" as="geometry"/></mxCell><mxCell id="14" value="int CategoryId&lt;br&gt;string Name&lt;br&gt;&lt;br&gt;&lt;br&gt;&lt;br&gt;&lt;br&gt;&lt;br&gt;&lt;br&gt;&lt;br&gt;&lt;br&gt;&lt;br&gt;&lt;br&gt;&lt;br&gt;&lt;br&gt;&lt;br&gt;" style="text;html=1;align=left;verticalAlign=middle;resizable=0;points=[];autosize=1;strokeColor=none;fillColor=none;" parent="6" vertex="1"><mxGeometry y="30" width="160" height="270" as="geometry"/></mxCell><mxCell id="11" value="" style="edgeStyle=entityRelationEdgeStyle;fontSize=12;html=1;endArrow=ERoneToMany;entryX=-0.006;entryY=0.356;entryDx=0;entryDy=0;entryPerimeter=0;" parent="1" target="7" edge="1"><mxGeometry width="100" height="100" relative="1" as="geometry"><mxPoint x="250" y="240" as="sourcePoint"/><mxPoint x="450" y="230" as="targetPoint"/></mxGeometry></mxCell><mxCell id="16" value="Attendance" style="swimlane;childLayout=stackLayout;horizontal=1;startSize=30;horizontalStack=0;rounded=1;fontSize=14;fontStyle=0;strokeWidth=2;resizeParent=0;resizeLast=1;shadow=0;dashed=0;align=center;" parent="1" vertex="1"><mxGeometry x="520" y="520" width="160" height="300" as="geometry"/></mxCell><mxCell id="17" value="int Id&lt;br&gt;Guid UserId&lt;br&gt;User User&lt;br&gt;string UserName&lt;br&gt;DateTime Date&lt;br&gt;Time Time&lt;br&gt;&lt;br&gt;&lt;br&gt;&lt;br&gt;&lt;br&gt;&lt;br&gt;&lt;br&gt;&lt;br&gt;&lt;br&gt;&lt;br&gt;&lt;br&gt;" style="text;html=1;align=left;verticalAlign=middle;resizable=0;points=[];autosize=1;strokeColor=none;fillColor=none;" parent="16" vertex="1"><mxGeometry y="30" width="160" height="270" as="geometry"/></mxCell><mxCell id="18" value="Order_Cooker" style="swimlane;childLayout=stackLayout;horizontal=1;startSize=30;horizontalStack=0;rounded=1;fontSize=14;fontStyle=0;strokeWidth=2;resizeParent=0;resizeLast=1;shadow=0;dashed=0;align=center;" vertex="1" parent="1"><mxGeometry x="360" y="-200" width="160" height="300" as="geometry"/></mxCell><mxCell id="19" value="&lt;div style=&quot;&quot;&gt;&lt;span style=&quot;background-color: initial;&quot;&gt;Int CookerOrderId&lt;/span&gt;&lt;/div&gt;&lt;div style=&quot;&quot;&gt;&lt;span style=&quot;background-color: initial;&quot;&gt;int Order&lt;/span&gt;&lt;/div&gt;&lt;div style=&quot;&quot;&gt;&lt;span style=&quot;background-color: initial;&quot;&gt;Food Food&lt;/span&gt;&lt;/div&gt;&lt;div style=&quot;&quot;&gt;string Status&lt;/div&gt;&lt;div style=&quot;&quot;&gt;string Type&lt;/div&gt;&lt;div style=&quot;&quot;&gt;&lt;span style=&quot;background-color: initial;&quot;&gt;User Cooker&lt;/span&gt;&lt;/div&gt;&lt;div style=&quot;&quot;&gt;&lt;span style=&quot;background-color: initial;&quot;&gt;Guid CookerId&lt;/span&gt;&lt;/div&gt;&lt;div style=&quot;&quot;&gt;&lt;span style=&quot;background-color: initial;&quot;&gt;DateTime AcceptedTime&lt;/span&gt;&lt;/div&gt;&lt;div style=&quot;&quot;&gt;&lt;span style=&quot;background-color: initial;&quot;&gt;DateTime ClosedTime&lt;/span&gt;&lt;/div&gt;&lt;div style=&quot;&quot;&gt;&lt;span style=&quot;background-color: initial;&quot;&gt;Time CoockingTime&lt;/span&gt;&lt;/div&gt;&lt;div style=&quot;&quot;&gt;&lt;span style=&quot;background-color: initial;&quot;&gt;&lt;br&gt;&lt;/span&gt;&lt;/div&gt;&lt;div style=&quot;&quot;&gt;&lt;span style=&quot;background-color: initial;&quot;&gt;&lt;br&gt;&lt;/span&gt;&lt;/div&gt;&lt;div style=&quot;&quot;&gt;&lt;span style=&quot;background-color: initial;&quot;&gt;&lt;br&gt;&lt;/span&gt;&lt;/div&gt;&lt;div style=&quot;&quot;&gt;&lt;span style=&quot;background-color: initial;&quot;&gt;&lt;br&gt;&lt;/span&gt;&lt;/div&gt;&lt;div style=&quot;&quot;&gt;&lt;span style=&quot;background-color: initial;&quot;&gt;&lt;br&gt;&lt;/span&gt;&lt;/div&gt;&lt;div style=&quot;&quot;&gt;&lt;span style=&quot;background-color: initial;&quot;&gt;&lt;br&gt;&lt;/span&gt;&lt;/div&gt;&lt;div style=&quot;&quot;&gt;&lt;span style=&quot;background-color: initial;&quot;&gt;&lt;br&gt;&lt;/span&gt;&lt;/div&gt;&lt;div style=&quot;&quot;&gt;&lt;span style=&quot;background-color: initial;&quot;&gt;&lt;br&gt;&lt;/span&gt;&lt;/div&gt;" style="text;html=1;align=left;verticalAlign=middle;resizable=0;points=[];autosize=1;strokeColor=none;fillColor=none;imageVerticalAlign=top;" vertex="1" parent="18"><mxGeometry y="30" width="160" height="270" as="geometry"/></mxCell><mxCell id="23" value="" style="edgeStyle=entityRelationEdgeStyle;fontSize=12;html=1;endArrow=ERoneToMany;entryX=0;entryY=0.407;entryDx=0;entryDy=0;entryPerimeter=0;exitX=1;exitY=0.296;exitDx=0;exitDy=0;exitPerimeter=0;" edge="1" parent="1" source="15" target="19"><mxGeometry width="100" height="100" relative="1" as="geometry"><mxPoint x="420" y="140" as="sourcePoint"/><mxPoint x="520" y="40" as="targetPoint"/></mxGeometry></mxCell><mxCell id="24" value="" style="edgeStyle=entityRelationEdgeStyle;fontSize=12;html=1;endArrow=ERoneToMany;exitX=0.996;exitY=0.615;exitDx=0;exitDy=0;exitPerimeter=0;entryX=0;entryY=0.444;entryDx=0;entryDy=0;entryPerimeter=0;" edge="1" parent="1" source="7" target="12"><mxGeometry width="100" height="100" relative="1" as="geometry"><mxPoint x="590" y="330" as="sourcePoint"/><mxPoint x="690" y="230" as="targetPoint"/></mxGeometry></mxCell><mxCell id="25" value="" style="edgeStyle=entityRelationEdgeStyle;fontSize=12;html=1;endArrow=ERoneToMany;exitX=0.461;exitY=1.01;exitDx=0;exitDy=0;exitPerimeter=0;entryX=0;entryY=0.148;entryDx=0;entryDy=0;entryPerimeter=0;" edge="1" parent="1" source="15" target="17"><mxGeometry width="100" height="100" relative="1" as="geometry"><mxPoint x="280" y="460" as="sourcePoint"/><mxPoint x="380" y="360" as="targetPoint"/></mxGeometry></mxCell><mxCell id="26" value="" style="edgeStyle=entityRelationEdgeStyle;fontSize=12;html=1;endArrow=ERoneToMany;exitX=1.013;exitY=0.53;exitDx=0;exitDy=0;exitPerimeter=0;entryX=-0.012;entryY=0.699;entryDx=0;entryDy=0;entryPerimeter=0;" edge="1" parent="1" source="14" target="12"><mxGeometry width="100" height="100" relative="1" as="geometry"><mxPoint x="370" y="610" as="sourcePoint"/><mxPoint x="470" y="510" as="targetPoint"/></mxGeometry></mxCell><mxCell id="29" value="" style="edgeStyle=entityRelationEdgeStyle;fontSize=12;html=1;endArrow=ERoneToMany;entryX=0.999;entryY=0.581;entryDx=0;entryDy=0;entryPerimeter=0;exitX=1.016;exitY=0.447;exitDx=0;exitDy=0;exitPerimeter=0;" edge="1" parent="1" source="7" target="19"><mxGeometry width="100" height="100" relative="1" as="geometry"><mxPoint x="390" y="210" as="sourcePoint"/><mxPoint x="490" y="110" as="targetPoint"/></mxGeometry></mxCell><mxCell id="30" value="" style="edgeStyle=entityRelationEdgeStyle;fontSize=12;html=1;endArrow=ERzeroToOne;startArrow=ERmandOne;entryX=-0.02;entryY=0.217;entryDx=0;entryDy=0;entryPerimeter=0;exitX=1.019;exitY=0.375;exitDx=0;exitDy=0;exitPerimeter=0;" edge="1" parent="1" source="19" target="12"><mxGeometry width="100" height="100" relative="1" as="geometry"><mxPoint x="540" y="180" as="sourcePoint"/><mxPoint x="640" y="80" as="targetPoint"/></mxGeometry></mxCell></root></mxGraphModel></diagram></mxfile>